<?xml version="1.0" encoding="UTF-8" standalone="no"?><!DOCTYPE svg PUBLIC "-//W3C//DTD SVG 1.1//EN" "http://www.w3.org/Graphics/SVG/1.1/DTD/svg11.dtd"><svg width="100%" height="100%" viewBox="0 0 2777 606" version="1.1" xmlns="http://www.w3.org/2000/svg" xmlns:xlink="http://www.w3.org/1999/xlink" xml:space="preserve" xmlns:serif="http://www.serif.com/" style="fill-rule:evenodd;clip-rule:evenodd;stroke-linejoin:round;stroke-miterlimit:2;"><g><g><path d="M183.861,296.708c-21.839,0 -40.306,-7.066 -55.4,-21.197c-15.095,-14.131 -22.642,-32.758 -22.642,-55.882c0,-23.124 7.547,-41.751 22.642,-55.882c15.095,-14.131 33.561,-21.197 55.4,-21.197c22.481,0 41.109,7.066 55.882,21.197c14.773,14.131 22.16,32.758 22.16,55.882c0,23.124 -7.387,41.751 -22.16,55.882c-14.773,14.131 -33.401,21.197 -55.882,21.197Z" style="fill:#fff;"/><path d="M78.337,450.865c-21.839,0 -40.306,-7.066 -55.4,-21.197c-15.095,-14.131 -22.642,-32.758 -22.642,-55.882c0,-23.124 7.547,-41.751 22.642,-55.882c15.095,-14.131 33.561,-21.197 55.4,-21.197c22.481,0 41.109,7.066 55.882,21.197c14.773,14.131 22.16,32.758 22.16,55.882c0,23.124 -7.387,41.751 -22.16,55.882c-14.773,14.131 -33.401,21.197 -55.882,21.197Z" style="fill:#fff;"/><path d="M183.861,605.023c-21.839,0 -40.306,-7.066 -55.4,-21.197c-15.095,-14.131 -22.642,-32.758 -22.642,-55.882c0,-23.124 7.547,-41.751 22.642,-55.882c15.095,-14.131 33.561,-21.197 55.4,-21.197c22.481,0 41.109,7.066 55.882,21.197c14.773,14.131 22.16,32.758 22.16,55.882c0,23.124 -7.387,41.751 -22.16,55.882c-14.773,14.131 -33.401,21.197 -55.882,21.197Z" style="fill:#fff;"/></g><g><path d="M603.325,603.648c-41.678,0 -78.427,2.957 -110.249,-14.784c-31.821,-17.741 -56.603,-42.804 -74.344,-75.189c-17.741,-32.385 -26.612,-70.542 -26.612,-114.473l0,-10.138c0,-43.931 8.73,-82.088 26.189,-114.473c17.46,-32.385 41.959,-57.448 73.499,-75.189c31.54,-17.741 68.149,-26.612 109.826,-26.612c41.114,0 76.878,9.152 107.292,27.457c30.413,18.304 54.068,43.649 70.965,76.034c16.896,32.385 25.345,69.979 25.345,112.783l0,36.327l-304.979,0c1.126,28.724 11.827,52.097 32.103,70.12c20.276,18.023 45.057,27.034 74.344,27.034c29.85,0 51.816,-6.477 65.896,-19.431c14.08,-12.954 24.781,-27.316 32.103,-43.086l87.016,45.62c-7.885,14.644 -19.29,30.554 -34.215,47.732c-14.925,17.178 -34.778,31.821 -59.56,43.931c-24.781,12.109 -56.321,6.336 -94.62,6.336Zm-102.223,-257.67l195.998,0c-2.253,-24.218 -11.968,-43.649 -29.146,-58.292c-17.178,-14.644 -39.566,-21.965 -67.163,-21.965c-28.724,0 -51.534,7.322 -68.43,21.965c-16.896,14.644 -27.316,34.074 -31.258,58.292Z" style="fill:#fff;fill-rule:nonzero;"/><path d="M834.805,603.648l0,-419.03l106.447,0l0,419.03l-106.447,0Zm53.224,-468.029c-19.149,0 -35.342,-6.195 -48.577,-18.586c-13.235,-12.391 -19.853,-28.724 -19.853,-48.999c0,-20.276 6.618,-36.609 19.853,-48.999c13.235,-12.391 29.428,-18.586 48.577,-18.586c19.712,0 36.046,6.195 48.999,18.586c12.954,12.391 19.431,28.724 19.431,48.999c0,20.276 -6.477,36.609 -19.431,48.999c-12.954,12.391 -29.287,18.586 -48.999,18.586Z" style="fill:#fff;fill-rule:nonzero;"/><path d="M1163.439,603.648c-33.23,0 -64.347,-8.307 -93.352,-24.922c-29.005,-16.615 -52.238,-40.974 -69.697,-73.077c-17.46,-32.103 -26.189,-59.137 -26.189,-104.757l0,-13.517c0,-45.62 8.73,-84.482 26.189,-116.585c17.46,-32.103 40.551,-56.462 69.275,-73.077c28.724,-16.615 59.982,-24.922 93.775,-24.922c25.345,0 46.606,2.957 63.784,8.871c17.178,5.914 31.117,13.376 41.818,22.388c10.701,9.011 18.868,18.586 24.5,28.724l15.207,0l0,-220.498l106.447,0l0,591.373l-104.757,0l-0,-62.517l-15.207,-0c-9.575,15.77 -24.359,30.132 -44.353,43.086c-19.994,12.954 -49.14,19.431 -87.439,19.431Zm32.103,-81.103c32.666,0 59.982,-10.56 81.947,-31.681c21.965,-21.12 32.948,-51.956 32.948,-92.508l0,-8.448c0,-40.551 -10.842,-71.387 -32.525,-92.508c-21.684,-21.12 -49.14,-31.681 -82.37,-31.681c-32.666,0 -59.982,10.56 -81.947,31.681c-21.965,21.12 -32.948,51.956 -32.948,92.508l0,8.448c0,40.551 10.983,71.387 32.948,92.508c21.965,21.12 49.281,31.681 81.947,31.681Z" style="fill:#fff;fill-rule:nonzero;"/><path d="M1659.348,603.648c-41.678,0 -78.427,2.957 -110.249,-14.784c-31.821,-17.741 -56.603,-42.804 -74.344,-75.189c-17.741,-32.385 -26.612,-70.542 -26.612,-114.473l0,-10.138c0,-43.931 8.73,-82.088 26.189,-114.473c17.46,-32.385 41.959,-57.448 73.499,-75.189c31.54,-17.741 68.149,-26.612 109.826,-26.612c41.114,0 76.878,9.152 107.292,27.457c30.413,18.304 54.068,43.649 70.965,76.034c16.896,32.385 25.345,69.979 25.345,112.783l0,36.327l-304.979,0c1.126,28.724 11.827,52.097 32.103,70.12c20.276,18.023 45.057,27.034 74.344,27.034c29.85,0 51.816,-6.477 65.896,-19.431c14.08,-12.954 24.781,-27.316 32.103,-43.086l87.016,45.62c-7.885,14.644 -19.29,30.554 -34.215,47.732c-14.925,17.178 -34.778,31.821 -59.56,43.931c-24.781,12.109 -56.321,6.336 -94.62,6.336Zm-102.223,-257.67l195.998,0c-2.253,-24.218 -11.968,-43.649 -29.146,-58.292c-17.178,-14.644 -39.566,-21.965 -67.163,-21.965c-28.724,0 -51.534,7.322 -68.43,21.965c-16.896,14.644 -27.316,34.074 -31.258,58.292Z" style="fill:#fff;fill-rule:nonzero;"/><path d="M2037.826,603.648c-27.597,0 -49.985,-8.589 -67.163,-25.767c-17.178,-17.178 -25.767,-40.129 -25.767,-68.853l0,-236.549l-104.757,0l0,-87.861l104.757,0l0,-130.102l106.447,0l0,130.102l114.895,0l0,87.861l-114.895,0l0,217.963c0,16.896 7.885,25.345 23.655,25.345l81.103,0l0,87.861l-118.275,0Z" style="fill:#fff;fill-rule:nonzero;"/><path d="M2197.497,603.648l0,-419.03l106.447,0l0,419.03l-106.447,0Zm53.224,-468.029c-19.149,0 -35.342,-6.195 -48.577,-18.586c-13.235,-12.391 -19.853,-28.724 -19.853,-48.999c0,-20.276 6.618,-36.609 19.853,-48.999c13.235,-12.391 29.428,-18.586 48.577,-18.586c19.712,0 36.046,6.195 48.999,18.586c12.954,12.391 19.431,28.724 19.431,48.999c0,20.276 -6.477,36.609 -19.431,48.999c-12.954,12.391 -29.287,18.586 -48.999,18.586Z" style="fill:#fff;fill-rule:nonzero;"/><path d="M2319.995,603.648l152.067,-211.205l-150.378,-207.825l123.343,0l95.464,139.395l15.207,0l95.464,-139.395l123.343,0l-150.378,207.825l152.067,211.205l-125.033,0l-95.464,-141.085l-15.207,0l-95.464,141.085l-125.033,0Z" style="fill:#fff;fill-rule:nonzero;"/></g></g></svg>